{
  "version": "1.1.6",
  "modules": [
    {
      "id": 1,
      "plugin": "Core",
      "version": "1.1.6",
      "model": "AudioInterface",
      "params": [],
      "data": {
        "audio": {
          "driver": 6,
          "deviceName": "Динамики (Realtek High Definition Audio)",
          "offset": 0,
          "maxChannels": 8,
          "sampleRate": 44100,
          "blockSize": 256
        }
      },
      "pos": [
        76,
        1
      ]
    },
    {
      "id": 5,
      "plugin": "Core",
      "version": "1.1.6",
      "model": "MIDIToCVInterface",
      "params": [],
      "rightModuleId": 7,
      "data": {
        "channels": 1,
        "polyMode": 0,
        "clockDivision": 24,
        "lastPitch": 8192,
        "lastMod": 0,
        "midi": {
          "driver": -11,
          "deviceName": "QWERTY keyboard (US)",
          "channel": -1
        }
      },
      "pos": [
        15,
        1
      ]
    },
    {
      "id": 7,
      "plugin": "Fundamental",
      "version": "1.4.0",
      "model": "Scope",
      "params": [
        {
          "id": 0,
          "value": 2.0
        },
        {
          "id": 1,
          "value": 0.0
        },
        {
          "id": 2,
          "value": 0.0
        },
        {
          "id": 3,
          "value": 0.0
        },
        {
          "id": 4,
          "value": 8.5500021
        },
        {
          "id": 5,
          "value": 0.0
        },
        {
          "id": 6,
          "value": 0.720000088
        },
        {
          "id": 7,
          "value": 0.0
        }
      ],
      "leftModuleId": 5,
      "rightModuleId": 71,
      "data": {
        "lissajous": 0,
        "external": 0
      },
      "pos": [
        23,
        1
      ]
    },
    {
      "id": 53,
      "plugin": "VultModulesFree",
      "version": "1.19.1",
      "model": "Trummor2",
      "params": [
        {
          "id": 0,
          "value": -0.100000001
        },
        {
          "id": 1,
          "value": 0.267999798
        },
        {
          "id": 2,
          "value": 0.2685
        },
        {
          "id": 3,
          "value": 0.00150000001
        },
        {
          "id": 4,
          "value": 0.729000032
        },
        {
          "id": 5,
          "value": -0.398000002
        },
        {
          "id": 6,
          "value": 0.0899999961
        },
        {
          "id": 7,
          "value": 0.597000003
        },
        {
          "id": 8,
          "value": 0.488499641
        },
        {
          "id": 9,
          "value": 0.0
        },
        {
          "id": 10,
          "value": 0.0
        },
        {
          "id": 11,
          "value": 0.563499987
        },
        {
          "id": 12,
          "value": 0.620500147
        },
        {
          "id": 13,
          "value": 0.0320000164
        },
        {
          "id": 14,
          "value": 1.0
        },
        {
          "id": 15,
          "value": 0.351499408
        },
        {
          "id": 16,
          "value": 0.0
        },
        {
          "id": 17,
          "value": 1.0
        },
        {
          "id": 18,
          "value": 0.0780000016
        },
        {
          "id": 19,
          "value": 0.0660000294
        },
        {
          "id": 20,
          "value": 0.335499913
        },
        {
          "id": 21,
          "value": 0.0
        },
        {
          "id": 22,
          "value": 0.0
        },
        {
          "id": 23,
          "value": 0.0704999566
        },
        {
          "id": 24,
          "value": 0.0
        },
        {
          "id": 25,
          "value": 0.0
        },
        {
          "id": 26,
          "value": 0.0
        },
        {
          "id": 27,
          "value": 0.0
        },
        {
          "id": 28,
          "value": 0.0
        },
        {
          "id": 29,
          "value": 0.0
        },
        {
          "id": 30,
          "value": 0.0
        },
        {
          "id": 31,
          "value": 0.0
        },
        {
          "id": 32,
          "value": 0.0
        }
      ],
      "leftModuleId": 54,
      "rightModuleId": 55,
      "data": {
        "mod_a": 23,
        "mod_b": 0,
        "mod_c": 0,
        "mod_d": 0,
        "mk2": true
      },
      "pos": [
        23,
        2
      ]
    },
    {
      "id": 54,
      "plugin": "JW-Modules",
      "version": "1.0.29",
      "model": "Str1ker",
      "params": [
        {
          "id": 0,
          "value": 1.0
        },
        {
          "id": 1,
          "value": 3.0
        },
        {
          "id": 2,
          "value": 0.0
        },
        {
          "id": 3,
          "value": 64.0
        },
        {
          "id": 4,
          "value": 1.0
        },
        {
          "id": 5,
          "value": 1.0
        },
        {
          "id": 6,
          "value": 0.0
        }
      ],
      "rightModuleId": 53,
      "data": {
        "clockMult": 4,
        "faderVal": 0.0
      },
      "pos": [
        15,
        2
      ]
    },
    {
      "id": 55,
      "plugin": "JW-Modules",
      "version": "1.0.29",
      "model": "Trigs",
      "params": [
        {
          "id": 0,
          "value": 64.0
        },
        {
          "id": 1,
          "value": 0.0
        },
        {
          "id": 2,
          "value": 0.0
        },
        {
          "id": 3,
          "value": 0.0
        },
        {
          "id": 4,
          "value": 0.100000001
        },
        {
          "id": 5,
          "value": 0.0
        }
      ],
      "leftModuleId": 53,
      "rightModuleId": 62,
      "data": {
        "channels": 1,
        "cells": [
          1,
          0,
          0,
          0,
          1,
          0,
          0,
          0,
          1,
          0,
          0,
          0,
          1,
          0,
          0,
          0,
          1,
          0,
          0,
          0,
          1,
          0,
          0,
          0,
          1,
          0,
          0,
          0,
          1,
          0,
          0,
          0,
          1,
          0,
          0,
          0,
          1,
          0,
          0,
          0,
          1,
          0,
          0,
          0,
          1,
          0,
          0,
          0,
          1,
          0,
          0,
          0,
          1,
          0,
          0,
          0,
          1,
          0,
          0,
          0,
          1,
          0,
          0,
          0,
          0,
          0,
          1,
          0,
          0,
          0,
          1,
          0,
          0,
          0,
          1,
          0,
          0,
          0,
          1,
          0,
          0,
          0,
          1,
          0,
          0,
          0,
          1,
          0,
          0,
          0,
          1,
          0,
          0,
          0,
          1,
          0,
          0,
          0,
          1,
          0,
          0,
          0,
          1,
          0,
          0,
          0,
          1,
          0,
          0,
          0,
          1,
          0,
          0,
          0,
          1,
          0,
          0,
          0,
          1,
          0,
          0,
          0,
          1,
          0,
          0,
          0,
          1,
          0,
          1,
          0,
          0,
          0,
          0,
          0,
          0,
          0,
          0,
          0,
          0,
          0,
          0,
          0,
          0,
          0,
          1,
          0,
          0,
          0,
          0,
          0,
          0,
          0,
          0,
          0,
          0,
          0,
          0,
          0,
          0,
          0,
          1,
          0,
          0,
          0,
          0,
          0,
          0,
          0,
          0,
          0,
          0,
          0,
          0,
          0,
          0,
          0,
          1,
          0,
          0,
          0,
          0,
          0,
          0,
          0,
          0,
          0,
          0,
          0,
          0,
          0,
          0,
          0,
          1,
          1,
          1,
          1,
          1,
          1,
          1,
          1,
          1,
          1,
          1,
          1,
          1,
          1,
          1,
          1,
          1,
          1,
          1,
          1,
          1,
          1,
          1,
          1,
          1,
          1,
          1,
          1,
          1,
          1,
          1,
          1,
          1,
          1,
          1,
          1,
          1,
          1,
          1,
          1,
          1,
          1,
          1,
          1,
          1,
          1,
          1,
          1,
          1,
          1,
          1,
          1,
          1,
          1,
          1,
          1,
          1,
          1,
          1,
          1,
          1,
          1,
          1,
          1
        ]
      },
      "pos": [
        43,
        2
      ]
    },
    {
      "id": 58,
      "plugin": "ImpromptuModular",
      "version": "1.1.12",
      "model": "Phrase-Seq-16",
      "params": [
        {
          "id": 0,
          "value": 0.0
        },
        {
          "id": 1,
          "value": 0.0
        },
        {
          "id": 2,
          "value": 0.0
        },
        {
          "id": 3,
          "value": 1.0
        },
        {
          "id": 5,
          "value": 0.0
        },
        {
          "id": 6,
          "value": 0.0
        },
        {
          "id": 7,
          "value": 0.0
        },
        {
          "id": 8,
          "value": 0.0
        },
        {
          "id": 9,
          "value": 0.0
        },
        {
          "id": 10,
          "value": 0.0
        },
        {
          "id": 11,
          "value": 0.0
        },
        {
          "id": 12,
          "value": 0.0
        },
        {
          "id": 13,
          "value": 0.0
        },
        {
          "id": 14,
          "value": 0.0
        },
        {
          "id": 15,
          "value": 0.0
        },
        {
          "id": 16,
          "value": 0.0
        },
        {
          "id": 17,
          "value": 0.0
        },
        {
          "id": 18,
          "value": 0.0
        },
        {
          "id": 19,
          "value": 0.200000003
        },
        {
          "id": 20,
          "value": 0.0
        },
        {
          "id": 21,
          "value": 0.0
        },
        {
          "id": 22,
          "value": 0.0
        },
        {
          "id": 23,
          "value": 0.0
        },
        {
          "id": 24,
          "value": 1.0
        },
        {
          "id": 25,
          "value": 0.0
        },
        {
          "id": 26,
          "value": 0.0
        },
        {
          "id": 27,
          "value": 0.0
        },
        {
          "id": 28,
          "value": 0.0
        },
        {
          "id": 29,
          "value": 0.0
        },
        {
          "id": 30,
          "value": 0.0
        },
        {
          "id": 31,
          "value": 0.0
        },
        {
          "id": 32,
          "value": 0.0
        },
        {
          "id": 33,
          "value": 0.0
        },
        {
          "id": 34,
          "value": 0.0
        },
        {
          "id": 35,
          "value": 0.0
        },
        {
          "id": 36,
          "value": 0.0
        },
        {
          "id": 37,
          "value": 0.0
        },
        {
          "id": 38,
          "value": 0.0
        },
        {
          "id": 39,
          "value": 0.0
        },
        {
          "id": 40,
          "value": 0.0
        },
        {
          "id": 41,
          "value": 0.0
        },
        {
          "id": 42,
          "value": 1.0
        },
        {
          "id": 43,
          "value": 0.0
        },
        {
          "id": 44,
          "value": 0.0
        },
        {
          "id": 45,
          "value": 0.0
        },
        {
          "id": 46,
          "value": 2.0
        },
        {
          "id": 47,
          "value": 0.0
        },
        {
          "id": 48,
          "value": 0.0
        },
        {
          "id": 49,
          "value": 0.0
        },
        {
          "id": 50,
          "value": 0.0
        },
        {
          "id": 51,
          "value": 0.0
        },
        {
          "id": 52,
          "value": 0.0
        },
        {
          "id": 53,
          "value": 0.0
        },
        {
          "id": 54,
          "value": 0.0
        },
        {
          "id": 55,
          "value": 0.0
        },
        {
          "id": 56,
          "value": 0.0
        },
        {
          "id": 57,
          "value": 0.0
        },
        {
          "id": 58,
          "value": 0.0
        },
        {
          "id": 59,
          "value": 0.0
        },
        {
          "id": 60,
          "value": 0.0
        },
        {
          "id": 61,
          "value": 0.0
        },
        {
          "id": 62,
          "value": 0.0
        }
      ],
      "data": {
        "panelTheme": 0,
        "autoseq": false,
        "autostepLen": false,
        "holdTiedNotes": true,
        "seqCVmethod": 0,
        "pulsesPerStep": 1,
        "running": true,
        "runModeSong3": 0,
        "stepIndexEdit": 15,
        "sequence": 0,
        "phraseIndexEdit": 0,
        "phrases": 4,
        "sequences": [
          16,
          16,
          16,
          16,
          16,
          16,
          16,
          16,
          16,
          16,
          16,
          16,
          16,
          16,
          16,
          16
        ],
        "phrase": [
          0,
          0,
          0,
          0,
          0,
          0,
          0,
          0,
          0,
          0,
          0,
          0,
          0,
          0,
          0,
          0
        ],
        "cv": [
          0.166666672,
          0.166666672,
          0.166666672,
          0.166666672,
          0.166666672,
          0.166666672,
          0.166666672,
          1.75,
          0.166666672,
          0.166666672,
          0.166666672,
          0.166666672,
          0.166666672,
          0.166666672,
          0.166666672,
          1.75,
          0.0,
          0.0,
          0.0,
          0.0,
          0.0,
          0.0,
          0.0,
          0.0,
          0.0,
          0.0,
          0.0,
          0.0,
          0.0,
          0.0,
          0.0,
          0.0,
          0.0,
          0.0,
          0.0,
          0.0,
          0.0,
          0.0,
          0.0,
          0.0,
          0.0,
          0.0,
          0.0,
          0.0,
          0.0,
          0.0,
          0.0,
          0.0,
          0.0,
          0.0,
          0.0,
          0.0,
          0.0,
          0.0,
          0.0,
          0.0,
          0.0,
          0.0,
          0.0,
          0.0,
          0.0,
          0.0,
          0.0,
          0.0,
          0.0,
          0.0,
          0.0,
          0.0,
          0.0,
          0.0,
          0.0,
          0.0,
          0.0,
          0.0,
          0.0,
          0.0,
          0.0,
          0.0,
          0.0,
          0.0,
          0.0,
          0.0,
          0.0,
          0.0,
          0.0,
          0.0,
          0.0,
          0.0,
          0.0,
          0.0,
          0.0,
          0.0,
          0.0,
          0.0,
          0.0,
          0.0,
          0.0,
          0.0,
          0.0,
          0.0,
          0.0,
          0.0,
          0.0,
          0.0,
          0.0,
          0.0,
          0.0,
          0.0,
          0.0,
          0.0,
          0.0,
          0.0,
          0.0,
          0.0,
          0.0,
          0.0,
          0.0,
          0.0,
          0.0,
          0.0,
          0.0,
          0.0,
          0.0,
          0.0,
          0.0,
          0.0,
          0.0,
          0.0,
          0.0,
          0.0,
          0.0,
          0.0,
          0.0,
          0.0,
          0.0,
          0.0,
          0.0,
          0.0,
          0.0,
          0.0,
          0.0,
          0.0,
          0.0,
          0.0,
          0.0,
          0.0,
          0.0,
          0.0,
          0.0,
          0.0,
          0.0,
          0.0,
          0.0,
          0.0,
          0.0,
          0.0,
          0.0,
          0.0,
          0.0,
          0.0,
          0.0,
          0.0,
          0.0,
          0.0,
          0.0,
          0.0,
          0.0,
          0.0,
          0.0,
          0.0,
          0.0,
          0.0,
          0.0,
          0.0,
          0.0,
          0.0,
          0.0,
          0.0,
          0.0,
          0.0,
          0.0,
          0.0,
          0.0,
          0.0,
          0.0,
          0.0,
          0.0,
          0.0,
          0.0,
          0.0,
          0.0,
          0.0,
          0.0,
          0.0,
          0.0,
          0.0,
          0.0,
          0.0,
          0.0,
          0.0,
          0.0,
          0.0,
          0.0,
          0.0,
          0.0,
          0.0,
          0.0,
          0.0,
          0.0,
          0.0,
          0.0,
          0.0,
          0.0,
          0.0,
          0.0,
          0.0,
          0.0,
          0.0,
          0.0,
          0.0,
          0.0,
          0.0,
          0.0,
          0.0,
          0.0,
          0.0,
          0.0,
          0.0,
          0.0,
          0.0,
          0.0,
          0.0,
          0.0,
          0.0,
          0.0,
          0.0,
          0.0,
          0.0,
          0.0,
          0.0,
          0.0,
          0.0,
          0.0,
          0.0,
          0.0,
          0.0,
          0.0,
          0.0,
          0.0,
          0.0,
          0.0,
          0.0,
          0.0,
          0.0,
          0.0,
          0.0
        ],
        "attributes": [
          1,
          1,
          1,
          1,
          1,
          1,
          1,
          1,
          1,
          1,
          1,
          1,
          1,
          1,
          1,
          1,
          1,
          1,
          1,
          1,
          1,
          1,
          1,
          1,
          1,
          1,
          1,
          1,
          1,
          1,
          1,
          1,
          1,
          1,
          1,
          1,
          1,
          1,
          1,
          1,
          1,
          1,
          1,
          1,
          1,
          1,
          1,
          1,
          1,
          1,
          1,
          1,
          1,
          1,
          1,
          1,
          1,
          1,
          1,
          1,
          1,
          1,
          1,
          1,
          1,
          1,
          1,
          1,
          1,
          1,
          1,
          1,
          1,
          1,
          1,
          1,
          1,
          1,
          1,
          1,
          1,
          1,
          1,
          1,
          1,
          1,
          1,
          1,
          1,
          1,
          1,
          1,
          1,
          1,
          1,
          1,
          1,
          1,
          1,
          1,
          1,
          1,
          1,
          1,
          1,
          1,
          1,
          1,
          1,
          1,
          1,
          1,
          1,
          1,
          1,
          1,
          1,
          1,
          1,
          1,
          1,
          1,
          1,
          1,
          1,
          1,
          1,
          1,
          1,
          1,
          1,
          1,
          1,
          1,
          1,
          1,
          1,
          1,
          1,
          1,
          1,
          1,
          1,
          1,
          1,
          1,
          1,
          1,
          1,
          1,
          1,
          1,
          1,
          1,
          1,
          1,
          1,
          1,
          1,
          1,
          1,
          1,
          1,
          1,
          1,
          1,
          1,
          1,
          1,
          1,
          1,
          1,
          1,
          1,
          1,
          1,
          1,
          1,
          1,
          1,
          1,
          1,
          1,
          1,
          1,
          1,
          1,
          1,
          1,
          1,
          1,
          1,
          1,
          1,
          1,
          1,
          1,
          1,
          1,
          1,
          1,
          1,
          1,
          1,
          1,
          1,
          1,
          1,
          1,
          1,
          1,
          1,
          1,
          1,
          1,
          1,
          1,
          1,
          1,
          1,
          1,
          1,
          1,
          1,
          1,
          1,
          1,
          1,
          1,
          1,
          1,
          1,
          1,
          1,
          1,
          1,
          1,
          1,
          1,
          1,
          1,
          1,
          1,
          1,
          1,
          1,
          1,
          1,
          1,
          1,
          1,
          1,
          1,
          1,
          1,
          1
        ],
        "resetOnRun": false,
        "attached": false,
        "stopAtEndOfSong": false
      },
      "pos": [
        9,
        3
      ]
    },
    {
      "id": 59,
      "plugin": "VultModulesFree",
      "version": "1.19.1",
      "model": "Spank",
      "params": [
        {
          "id": 0,
          "value": 0.0464999899
        },
        {
          "id": 1,
          "value": 1.0
        },
        {
          "id": 2,
          "value": 0.56249994
        },
        {
          "id": 3,
          "value": 0.0
        },
        {
          "id": 4,
          "value": 0.0
        },
        {
          "id": 5,
          "value": 0.0
        },
        {
          "id": 6,
          "value": 1.0
        }
      ],
      "rightModuleId": 60,
      "pos": [
        48,
        3
      ]
    },
    {
      "id": 60,
      "plugin": "VultModulesFree",
      "version": "1.19.1",
      "model": "Tohe",
      "params": [
        {
          "id": 0,
          "value": 1.0
        },
        {
          "id": 1,
          "value": 1.0
        },
        {
          "id": 2,
          "value": 2.0
        }
      ],
      "leftModuleId": 59,
      "rightModuleId": 76,
      "pos": [
        58,
        3
      ]
    },
    {
      "id": 62,
      "plugin": "VultModulesFree",
      "version": "1.19.1",
      "model": "Basal",
      "params": [
        {
          "id": 0,
          "value": -0.390999496
        },
        {
          "id": 1,
          "value": -0.2489997
        },
        {
          "id": 2,
          "value": 0.595500588
        },
        {
          "id": 3,
          "value": 0.520000279
        },
        {
          "id": 4,
          "value": 0.484500051
        },
        {
          "id": 5,
          "value": 1.0
        }
      ],
      "leftModuleId": 55,
      "rightModuleId": 63,
      "pos": [
        56,
        2
      ]
    },
    {
      "id": 63,
      "plugin": "NYSTHI",
      "version": "1.0.17",
      "model": "PlateVerb",
      "params": [
        {
          "id": 0,
          "value": 0.692500055
        },
        {
          "id": 1,
          "value": 0.244499952
        },
        {
          "id": 2,
          "value": 0.76150018
        },
        {
          "id": 3,
          "value": 0.0
        },
        {
          "id": 4,
          "value": 0.0
        },
        {
          "id": 5,
          "value": 0.0
        },
        {
          "id": 6,
          "value": 0.0
        },
        {
          "id": 7,
          "value": 0.899999976
        },
        {
          "id": 8,
          "value": 0.899999976
        },
        {
          "id": 9,
          "value": 0.629999757
        },
        {
          "id": 10,
          "value": 0.5
        },
        {
          "id": 11,
          "value": 0.5
        },
        {
          "id": 12,
          "value": 0.0
        }
      ],
      "leftModuleId": 62,
      "rightModuleId": 69,
      "pos": [
        62,
        2
      ]
    },
    {
      "id": 67,
      "plugin": "EricaCopies",
      "version": "1.0.4",
      "model": "PicoDrums",
      "params": [
        {
          "id": 0,
          "value": 0.675000191
        },
        {
          "id": 1,
          "value": 1.0
        },
        {
          "id": 2,
          "value": 1.0
        }
      ],
      "data": {
        "mode": 2,
        "pitch_value1": 4.13815212,
        "pitch_value2": 10.0,
        "sample_value1": 6.13769531,
        "sample_value2": 10.0,
        "last_sample_value1": -3.86230469,
        "last_sample_value2": 0.0,
        "volume_value1": 0.340942383,
        "volume_value2": 1.25,
        "decay_value1": 1.0246222,
        "decay_value2": 0.100000001,
        "last_decay_value1": -9.24622154,
        "last_decay_value2": 0.0,
        "CVparam": 0
      },
      "pos": [
        0,
        3
      ]
    },
    {
      "id": 69,
      "plugin": "EricaCopies",
      "version": "1.0.4",
      "model": "BlackOctasource",
      "params": [
        {
          "id": 0,
          "value": -1.0
        },
        {
          "id": 1,
          "value": 0.0
        },
        {
          "id": 2,
          "value": 0.0
        },
        {
          "id": 3,
          "value": 0.0
        }
      ],
      "leftModuleId": 63,
      "data": {
        "unliPolarMode": false
      },
      "pos": [
        69,
        2
      ]
    },
    {
      "id": 70,
      "plugin": "EricaCopies",
      "version": "1.0.4",
      "model": "PicoDrums",
      "params": [
        {
          "id": 0,
          "value": -10.0730467
        },
        {
          "id": 1,
          "value": 0.0
        },
        {
          "id": 2,
          "value": 1.0
        }
      ],
      "data": {
        "mode": 0,
        "pitch_value1": 4.65169334,
        "pitch_value2": 1.66184998,
        "sample_value1": 6.66448641,
        "sample_value2": 7.83789015,
        "last_sample_value1": -3.33551359,
        "last_sample_value2": -2.16210985,
        "volume_value1": 1.25,
        "volume_value2": 1.25,
        "decay_value1": 0.398463517,
        "decay_value2": 0.116966166,
        "last_decay_value1": -2.98463535,
        "last_decay_value2": -0.169661522,
        "CVparam": 0
      },
      "pos": [
        5,
        3
      ]
    },
    {
      "id": 71,
      "plugin": "Bogaudio",
      "version": "1.1.38",
      "model": "Bogaudio-Mix8",
      "params": [
        {
          "id": 0,
          "value": 0.505499423
        },
        {
          "id": 1,
          "value": 1.0
        },
        {
          "id": 2,
          "value": 0.0
        },
        {
          "id": 3,
          "value": 0.801091492
        },
        {
          "id": 4,
          "value": 0.0
        },
        {
          "id": 5,
          "value": 0.0
        },
        {
          "id": 6,
          "value": 0.672999918
        },
        {
          "id": 7,
          "value": 0.0
        },
        {
          "id": 8,
          "value": 0.0
        },
        {
          "id": 9,
          "value": 0.679591179
        },
        {
          "id": 10,
          "value": 0.0
        },
        {
          "id": 11,
          "value": 0.0
        },
        {
          "id": 12,
          "value": 0.810000062
        },
        {
          "id": 13,
          "value": 1.0
        },
        {
          "id": 14,
          "value": 0.0
        },
        {
          "id": 15,
          "value": 0.61650008
        },
        {
          "id": 16,
          "value": 1.0
        },
        {
          "id": 17,
          "value": 0.0
        },
        {
          "id": 18,
          "value": 0.676500559
        },
        {
          "id": 19,
          "value": 1.0
        },
        {
          "id": 20,
          "value": -0.00999990292
        },
        {
          "id": 21,
          "value": 0.480091184
        },
        {
          "id": 22,
          "value": 1.0
        },
        {
          "id": 23,
          "value": 0.0
        },
        {
          "id": 24,
          "value": 0.86109221
        },
        {
          "id": 25,
          "value": 0.0
        },
        {
          "id": 26,
          "value": 0.0
        }
      ],
      "leftModuleId": 7,
      "data": {
        "linear_cv": false,
        "dim_decibels": 12.0,
        "poly_channel_offset": -1
      },
      "pos": [
        36,
        1
      ]
    },
    {
      "id": 72,
      "plugin": "NYSTHI",
      "version": "1.0.17",
      "model": "JIRAJIRAECHO",
      "params": [
        {
          "id": 0,
          "value": 1.0
        },
        {
          "id": 1,
          "value": 1.0
        },
        {
          "id": 2,
          "value": 0.0
        },
        {
          "id": 3,
          "value": 0.0
        },
        {
          "id": 4,
          "value": 0.0
        },
        {
          "id": 5,
          "value": 0.0
        },
        {
          "id": 6,
          "value": 0.0
        },
        {
          "id": 7,
          "value": 0.0
        },
        {
          "id": 8,
          "value": 0.0
        },
        {
          "id": 9,
          "value": 0.0
        },
        {
          "id": 10,
          "value": 0.0
        },
        {
          "id": 11,
          "value": 0.0
        },
        {
          "id": 12,
          "value": 0.0
        },
        {
          "id": 13,
          "value": 0.0
        },
        {
          "id": 14,
          "value": 0.0
        },
        {
          "id": 15,
          "value": 0.0
        },
        {
          "id": 16,
          "value": 0.0
        },
        {
          "id": 17,
          "value": 1.0
        },
        {
          "id": 18,
          "value": 1.0
        },
        {
          "id": 19,
          "value": 1.0
        },
        {
          "id": 20,
          "value": 1.0
        },
        {
          "id": 21,
          "value": 1.0
        },
        {
          "id": 22,
          "value": 1.0
        },
        {
          "id": 23,
          "value": 0.0
        },
        {
          "id": 24,
          "value": 1.0
        },
        {
          "id": 25,
          "value": 0.0
        },
        {
          "id": 26,
          "value": 0.5
        },
        {
          "id": 27,
          "value": 0.5
        },
        {
          "id": 28,
          "value": 0.0299999993
        },
        {
          "id": 29,
          "value": 0.0
        },
        {
          "id": 30,
          "value": 0.0
        },
        {
          "id": 31,
          "value": 0.0
        },
        {
          "id": 32,
          "value": 0.0
        },
        {
          "id": 33,
          "value": 0.100000001
        },
        {
          "id": 34,
          "value": 0.0
        },
        {
          "id": 35,
          "value": 0.0
        },
        {
          "id": 36,
          "value": 0.0
        },
        {
          "id": 37,
          "value": 0.0
        },
        {
          "id": 38,
          "value": 0.0
        },
        {
          "id": 39,
          "value": 0.0
        },
        {
          "id": 40,
          "value": 0.0
        },
        {
          "id": 41,
          "value": 0.722499907
        },
        {
          "id": 42,
          "value": 1500.0
        },
        {
          "id": 43,
          "value": 0.0
        }
      ],
      "rightModuleId": 75,
      "data": {
        "m_head_active0": false,
        "m_head_repeat_active0": false,
        "m_head_active1": false,
        "m_head_repeat_active1": false,
        "m_head_active2": false,
        "m_head_repeat_active2": false,
        "m_head_active3": false,
        "m_head_repeat_active3": false,
        "m_head_active4": false,
        "m_head_repeat_active4": false,
        "m_head_active5": false,
        "m_head_repeat_active5": false,
        "m_erasehead_active": false,
        "m_speed_divided_by_ten": false
      },
      "pos": [
        9,
        4
      ]
    },
    {
      "id": 73,
      "plugin": "NYSTHI",
      "version": "1.0.17",
      "model": "WORMHOLIZER",
      "params": [
        {
          "id": 0,
          "value": 0.0
        },
        {
          "id": 1,
          "value": 23.6775017
        },
        {
          "id": 2,
          "value": 1.0
        },
        {
          "id": 3,
          "value": 1.0
        },
        {
          "id": 4,
          "value": 1.0
        },
        {
          "id": 5,
          "value": 0.831674993
        },
        {
          "id": 6,
          "value": 1.0
        },
        {
          "id": 7,
          "value": 1.0
        },
        {
          "id": 8,
          "value": 0.0
        },
        {
          "id": 9,
          "value": 0.0
        }
      ],
      "leftModuleId": 75,
      "rightModuleId": 107,
      "data": {
        "m_bypassed": false,
        "m_delays_at_work": 24,
        "m_stereo_spread": 1,
        "m_frequency_spread": 1
      },
      "pos": [
        45,
        4
      ]
    },
    {
      "id": 75,
      "plugin": "NYSTHI",
      "version": "1.0.17",
      "model": "NYECHOEcoeco",
      "params": [
        {
          "id": 0,
          "value": 1.0
        },
        {
          "id": 1,
          "value": 1.0
        },
        {
          "id": 2,
          "value": 0.0
        },
        {
          "id": 3,
          "value": 0.0
        },
        {
          "id": 4,
          "value": 0.0
        },
        {
          "id": 5,
          "value": 0.0
        },
        {
          "id": 6,
          "value": 0.0
        },
        {
          "id": 7,
          "value": 0.0
        },
        {
          "id": 8,
          "value": 0.0
        },
        {
          "id": 9,
          "value": 0.0
        },
        {
          "id": 10,
          "value": 0.0
        },
        {
          "id": 11,
          "value": 0.0
        },
        {
          "id": 12,
          "value": 0.0
        },
        {
          "id": 13,
          "value": 0.0
        },
        {
          "id": 14,
          "value": 0.0
        },
        {
          "id": 15,
          "value": 0.0
        },
        {
          "id": 16,
          "value": 0.0
        },
        {
          "id": 17,
          "value": 1.0
        },
        {
          "id": 18,
          "value": 1.0
        },
        {
          "id": 19,
          "value": 1.0
        },
        {
          "id": 20,
          "value": 1.0
        },
        {
          "id": 21,
          "value": 1.0
        },
        {
          "id": 22,
          "value": 1.0
        },
        {
          "id": 23,
          "value": 0.0
        },
        {
          "id": 24,
          "value": 1.0
        },
        {
          "id": 25,
          "value": 0.0
        },
        {
          "id": 26,
          "value": 0.5
        },
        {
          "id": 27,
          "value": 0.5
        },
        {
          "id": 28,
          "value": 0.0299999993
        },
        {
          "id": 29,
          "value": 0.0
        },
        {
          "id": 30,
          "value": 0.0
        },
        {
          "id": 31,
          "value": 0.0
        },
        {
          "id": 32,
          "value": 0.0
        },
        {
          "id": 33,
          "value": 0.100000001
        }
      ],
      "leftModuleId": 72,
      "rightModuleId": 73,
      "data": {
        "m_head_active0": false,
        "m_head_active1": false,
        "m_head_active2": true,
        "m_head_active3": false,
        "m_head_active4": false,
        "m_head_active5": false,
        "m_erasehead_active": true,
        "m_speed_divided_by_ten": false
      },
      "pos": [
        27,
        4
      ]
    },
    {
      "id": 76,
      "plugin": "NYSTHI",
      "version": "1.0.17",
      "model": "DYNAMO",
      "params": [
        {
          "id": 0,
          "value": 0.0424250029
        },
        {
          "id": 1,
          "value": 0.0
        },
        {
          "id": 2,
          "value": 0.101317011
        },
        {
          "id": 3,
          "value": 12.7334013
        },
        {
          "id": 4,
          "value": 0.0
        },
        {
          "id": 5,
          "value": 0.644045949
        },
        {
          "id": 6,
          "value": 1.08892024
        },
        {
          "id": 7,
          "value": 0.775223792
        },
        {
          "id": 8,
          "value": 0.0
        },
        {
          "id": 9,
          "value": 0.0
        },
        {
          "id": 10,
          "value": 0.0
        },
        {
          "id": 11,
          "value": 0.0
        },
        {
          "id": 12,
          "value": 0.0
        }
      ],
      "leftModuleId": 60,
      "rightModuleId": 110,
      "data": {
        "m_bypass": false,
        "m_show_info": false,
        "m_limiting": false,
        "m_ducking": false,
        "m_brickwallducking": false
      },
      "pos": [
        62,
        3
      ]
    },
    {
      "id": 77,
      "plugin": "Fundamental",
      "version": "1.4.0",
      "model": "VCO",
      "params": [
        {
          "id": 0,
          "value": 1.0
        },
        {
          "id": 1,
          "value": 1.0
        },
        {
          "id": 2,
          "value": 0.0
        },
        {
          "id": 3,
          "value": -1.0
        },
        {
          "id": 4,
          "value": 0.0
        },
        {
          "id": 5,
          "value": 0.5
        },
        {
          "id": 6,
          "value": 0.0
        }
      ],
      "rightModuleId": 78,
      "pos": [
        83,
        2
      ]
    },
    {
      "id": 78,
      "plugin": "Fundamental",
      "version": "1.4.0",
      "model": "VCO",
      "params": [
        {
          "id": 0,
          "value": 1.0
        },
        {
          "id": 1,
          "value": 1.0
        },
        {
          "id": 2,
          "value": 0.0
        },
        {
          "id": 3,
          "value": 1.0
        },
        {
          "id": 4,
          "value": 0.0
        },
        {
          "id": 5,
          "value": 0.5
        },
        {
          "id": 6,
          "value": 0.0
        }
      ],
      "leftModuleId": 77,
      "rightModuleId": 79,
      "pos": [
        93,
        2
      ]
    },
    {
      "id": 79,
      "plugin": "Fundamental",
      "version": "1.4.0",
      "model": "VCO",
      "params": [
        {
          "id": 0,
          "value": 1.0
        },
        {
          "id": 1,
          "value": 1.0
        },
        {
          "id": 2,
          "value": 0.0
        },
        {
          "id": 3,
          "value": -1.0
        },
        {
          "id": 4,
          "value": 0.0
        },
        {
          "id": 5,
          "value": 0.5
        },
        {
          "id": 6,
          "value": 0.0
        }
      ],
      "leftModuleId": 78,
      "rightModuleId": 89,
      "pos": [
        103,
        2
      ]
    },
    {
      "id": 81,
      "plugin": "JW-Modules",
      "version": "1.0.29",
      "model": "GridSeq",
      "params": [
        {
          "id": 0,
          "value": 0.0
        },
        {
          "id": 1,
          "value": 0.0
        },
        {
          "id": 2,
          "value": 0.0
        },
        {
          "id": 3,
          "value": 1.1102289
        },
        {
          "id": 4,
          "value": 8.0856657
        },
        {
          "id": 5,
          "value": 7.3584013
        },
        {
          "id": 6,
          "value": 0.288324952
        },
        {
          "id": 7,
          "value": 5.76300669
        },
        {
          "id": 8,
          "value": 1.22072875
        },
        {
          "id": 9,
          "value": 5.14267635
        },
        {
          "id": 10,
          "value": 5.20283222
        },
        {
          "id": 11,
          "value": 4.23720121
        },
        {
          "id": 12,
          "value": 0.459867716
        },
        {
          "id": 13,
          "value": 6.23473692
        },
        {
          "id": 14,
          "value": 3.76764345
        },
        {
          "id": 15,
          "value": 4.46643543
        },
        {
          "id": 16,
          "value": 8.10863113
        },
        {
          "id": 17,
          "value": 5.39415073
        },
        {
          "id": 18,
          "value": 8.37323666
        },
        {
          "id": 19,
          "value": 0.0
        },
        {
          "id": 20,
          "value": 0.0
        },
        {
          "id": 21,
          "value": 0.0
        },
        {
          "id": 22,
          "value": 0.0
        },
        {
          "id": 23,
          "value": 0.0
        },
        {
          "id": 24,
          "value": 0.0
        },
        {
          "id": 25,
          "value": 0.0
        },
        {
          "id": 26,
          "value": 0.0
        },
        {
          "id": 27,
          "value": 0.0
        },
        {
          "id": 28,
          "value": 0.0
        },
        {
          "id": 29,
          "value": 0.0
        },
        {
          "id": 30,
          "value": 0.0
        },
        {
          "id": 31,
          "value": 0.0
        },
        {
          "id": 32,
          "value": 0.0
        },
        {
          "id": 33,
          "value": 0.0
        },
        {
          "id": 34,
          "value": 0.0
        },
        {
          "id": 35,
          "value": 0.0
        },
        {
          "id": 36,
          "value": 0.0
        },
        {
          "id": 37,
          "value": 11.0
        },
        {
          "id": 38,
          "value": 0.0
        },
        {
          "id": 39,
          "value": 0.0
        },
        {
          "id": 40,
          "value": 0.0
        },
        {
          "id": 41,
          "value": 0.0
        },
        {
          "id": 42,
          "value": 0.0
        },
        {
          "id": 43,
          "value": 0.0
        },
        {
          "id": 44,
          "value": 0.0
        },
        {
          "id": 45,
          "value": 2.0
        },
        {
          "id": 46,
          "value": -1.0
        },
        {
          "id": 47,
          "value": 0.672679245
        },
        {
          "id": 48,
          "value": 0.668678939
        },
        {
          "id": 49,
          "value": 0.472713828
        },
        {
          "id": 50,
          "value": 0.0290449858
        },
        {
          "id": 51,
          "value": 0.243371546
        },
        {
          "id": 52,
          "value": 0.0934771895
        },
        {
          "id": 53,
          "value": 0.8731094
        },
        {
          "id": 54,
          "value": 0.192850649
        },
        {
          "id": 55,
          "value": 0.981288552
        },
        {
          "id": 56,
          "value": 0.823508859
        },
        {
          "id": 57,
          "value": 0.0565091372
        },
        {
          "id": 58,
          "value": 0.419619918
        },
        {
          "id": 59,
          "value": 0.60563153
        },
        {
          "id": 60,
          "value": 0.974688232
        },
        {
          "id": 61,
          "value": 0.953167081
        },
        {
          "id": 62,
          "value": 0.83239001
        },
        {
          "id": 63,
          "value": 0.0
        }
      ],
      "leftModuleId": 110,
      "rightModuleId": 88,
      "data": {
        "running": false,
        "ignoreGateOnPitchOut": false,
        "gates": [
          1,
          1,
          1,
          1,
          1,
          1,
          1,
          1,
          1,
          1,
          1,
          1,
          1,
          1,
          1,
          1
        ],
        "gateMode": 0
      },
      "pos": [
        82,
        3
      ]
    },
    {
      "id": 82,
      "plugin": "Bogaudio",
      "version": "1.1.38",
      "model": "Bogaudio-Mix4",
      "params": [
        {
          "id": 0,
          "value": 0.909090936
        },
        {
          "id": 1,
          "value": 0.0
        },
        {
          "id": 2,
          "value": 0.0
        },
        {
          "id": 3,
          "value": 0.909090936
        },
        {
          "id": 4,
          "value": 0.0
        },
        {
          "id": 5,
          "value": 0.0
        },
        {
          "id": 6,
          "value": 0.909090936
        },
        {
          "id": 7,
          "value": 0.0
        },
        {
          "id": 8,
          "value": 0.0
        },
        {
          "id": 9,
          "value": 0.909090936
        },
        {
          "id": 10,
          "value": 0.0
        },
        {
          "id": 11,
          "value": 0.0
        },
        {
          "id": 12,
          "value": 0.792090356
        },
        {
          "id": 13,
          "value": 0.0
        },
        {
          "id": 14,
          "value": 0.0
        }
      ],
      "leftModuleId": 89,
      "data": {
        "linear_cv": false,
        "dim_decibels": 12.0,
        "poly_channel_offset": -1
      },
      "pos": [
        123,
        2
      ]
    },
    {
      "id": 88,
      "plugin": "ImpromptuModular",
      "version": "1.1.12",
      "model": "Chord-Key",
      "params": [
        {
          "id": 0,
          "value": 0.0
        },
        {
          "id": 1,
          "value": 0.0
        },
        {
          "id": 2,
          "value": 0.0
        },
        {
          "id": 3,
          "value": 0.0
        },
        {
          "id": 4,
          "value": 0.0
        },
        {
          "id": 5,
          "value": 0.0
        },
        {
          "id": 6,
          "value": 0.0
        },
        {
          "id": 7,
          "value": 0.0
        },
        {
          "id": 8,
          "value": 9.0
        },
        {
          "id": 9,
          "value": 1.0
        },
        {
          "id": 10,
          "value": 0.0
        },
        {
          "id": 11,
          "value": 0.0
        }
      ],
      "leftModuleId": 81,
      "rightModuleId": 96,
      "data": {
        "panelTheme": 0,
        "octs": [
          4,
          3,
          3,
          4,
          4,
          4,
          4,
          -1,
          4,
          4,
          4,
          -1,
          4,
          4,
          4,
          -1,
          4,
          4,
          4,
          -1,
          4,
          4,
          4,
          -1,
          4,
          4,
          4,
          -1,
          2,
          3,
          3,
          2,
          4,
          4,
          4,
          -1,
          0,
          2,
          2,
          -1,
          4,
          4,
          4,
          -1,
          4,
          4,
          4,
          -1,
          4,
          4,
          4,
          -1,
          4,
          4,
          4,
          -1,
          6,
          4,
          4,
          -1,
          4,
          4,
          4,
          -1,
          5,
          4,
          4,
          -1,
          5,
          4,
          4,
          -1,
          4,
          4,
          4,
          -1,
          4,
          4,
          4,
          -1,
          4,
          4,
          4,
          -1,
          4,
          4,
          4,
          -1,
          4,
          4,
          4,
          -1,
          4,
          4,
          4,
          -1,
          4,
          4,
          4,
          -1
        ],
        "keys": [
          4,
          1,
          5,
          0,
          0,
          4,
          7,
          0,
          0,
          4,
          7,
          0,
          0,
          4,
          7,
          0,
          0,
          4,
          7,
          0,
          0,
          4,
          7,
          0,
          0,
          4,
          7,
          0,
          3,
          4,
          7,
          0,
          0,
          4,
          7,
          0,
          8,
          0,
          3,
          0,
          0,
          4,
          7,
          0,
          0,
          4,
          7,
          0,
          0,
          4,
          7,
          0,
          0,
          4,
          7,
          0,
          0,
          4,
          7,
          0,
          0,
          4,
          7,
          0,
          4,
          8,
          11,
          0,
          0,
          4,
          7,
          0,
          0,
          4,
          7,
          0,
          0,
          4,
          7,
          0,
          0,
          4,
          7,
          0,
          0,
          4,
          7,
          0,
          0,
          4,
          7,
          0,
          0,
          4,
          7,
          0,
          0,
          4,
          7,
          0
        ],
        "mergeOutputs": 0,
        "keypressEmitGate": 1,
        "autostepPaste": 0
      },
      "pos": [
        102,
        3
      ]
    },
    {
      "id": 89,
      "plugin": "Fundamental",
      "version": "1.4.0",
      "model": "VCO",
      "params": [
        {
          "id": 0,
          "value": 1.0
        },
        {
          "id": 1,
          "value": 1.0
        },
        {
          "id": 2,
          "value": 0.0
        },
        {
          "id": 3,
          "value": 1.0
        },
        {
          "id": 4,
          "value": 0.0
        },
        {
          "id": 5,
          "value": 0.5
        },
        {
          "id": 6,
          "value": 0.0
        }
      ],
      "leftModuleId": 79,
      "rightModuleId": 82,
      "pos": [
        113,
        2
      ]
    },
    {
      "id": 94,
      "plugin": "VultModulesFree",
      "version": "1.19.1",
      "model": "Spank",
      "params": [
        {
          "id": 0,
          "value": 0.0
        },
        {
          "id": 1,
          "value": 0.0
        },
        {
          "id": 2,
          "value": 0.391999662
        },
        {
          "id": 3,
          "value": 0.0
        },
        {
          "id": 4,
          "value": 0.0
        },
        {
          "id": 5,
          "value": 0.0
        },
        {
          "id": 6,
          "value": 0.0
        }
      ],
      "leftModuleId": 95,
      "rightModuleId": 97,
      "pos": [
        83,
        4
      ]
    },
    {
      "id": 95,
      "plugin": "JW-Modules",
      "version": "1.0.29",
      "model": "Trigs",
      "params": [
        {
          "id": 0,
          "value": 64.0
        },
        {
          "id": 1,
          "value": 0.0
        },
        {
          "id": 2,
          "value": 0.0
        },
        {
          "id": 3,
          "value": 0.0
        },
        {
          "id": 4,
          "value": 0.100000001
        },
        {
          "id": 5,
          "value": 0.0
        }
      ],
      "leftModuleId": 105,
      "rightModuleId": 94,
      "data": {
        "channels": 1,
        "cells": [
          1,
          0,
          0,
          1,
          0,
          0,
          1,
          0,
          0,
          1,
          0,
          0,
          1,
          0,
          0,
          1,
          1,
          0,
          0,
          1,
          0,
          0,
          1,
          0,
          0,
          1,
          0,
          0,
          1,
          0,
          0,
          1,
          1,
          0,
          0,
          1,
          0,
          0,
          1,
          0,
          0,
          1,
          0,
          0,
          1,
          0,
          0,
          1,
          1,
          0,
          0,
          1,
          0,
          0,
          1,
          0,
          0,
          1,
          0,
          0,
          1,
          0,
          0,
          1,
          1,
          1,
          1,
          1,
          1,
          1,
          1,
          1,
          1,
          1,
          1,
          1,
          1,
          1,
          1,
          1,
          1,
          1,
          1,
          1,
          1,
          1,
          1,
          1,
          1,
          1,
          1,
          1,
          1,
          1,
          1,
          1,
          1,
          1,
          1,
          1,
          1,
          1,
          1,
          1,
          1,
          1,
          1,
          1,
          1,
          1,
          1,
          1,
          1,
          1,
          1,
          1,
          1,
          1,
          1,
          1,
          1,
          1,
          1,
          1,
          1,
          1,
          1,
          1,
          0,
          0,
          0,
          0,
          0,
          0,
          0,
          0,
          0,
          0,
          0,
          0,
          0,
          0,
          0,
          0,
          0,
          0,
          0,
          0,
          0,
          0,
          0,
          0,
          0,
          0,
          0,
          0,
          0,
          0,
          0,
          0,
          0,
          0,
          0,
          0,
          0,
          0,
          0,
          0,
          0,
          0,
          0,
          0,
          0,
          0,
          0,
          0,
          0,
          0,
          0,
          0,
          0,
          0,
          0,
          0,
          0,
          0,
          0,
          0,
          0,
          0,
          0,
          0,
          0,
          0,
          0,
          0,
          0,
          0,
          0,
          0,
          0,
          0,
          0,
          0,
          0,
          0,
          0,
          0,
          0,
          0,
          0,
          0,
          0,
          0,
          0,
          0,
          0,
          0,
          0,
          0,
          0,
          0,
          0,
          0,
          0,
          0,
          0,
          0,
          0,
          0,
          0,
          0,
          0,
          0,
          0,
          0,
          0,
          0,
          0,
          0,
          0,
          0,
          0,
          0,
          0,
          0,
          0,
          0,
          0,
          0,
          0,
          0,
          0,
          0,
          0,
          0
        ]
      },
      "pos": [
        70,
        4
      ]
    },
    {
      "id": 96,
      "plugin": "NYSTHI",
      "version": "1.0.17",
      "model": "HiVerb",
      "params": [
        {
          "id": 0,
          "value": 0.671499908
        },
        {
          "id": 1,
          "value": 0.5
        },
        {
          "id": 2,
          "value": 0.5
        },
        {
          "id": 3,
          "value": 0.600000024
        },
        {
          "id": 4,
          "value": 0.5
        },
        {
          "id": 5,
          "value": 0.680000007
        },
        {
          "id": 6,
          "value": 0.600000024
        },
        {
          "id": 7,
          "value": 0.800000012
        },
        {
          "id": 8,
          "value": 1.0
        },
        {
          "id": 9,
          "value": 0.0
        }
      ],
      "leftModuleId": 88,
      "pos": [
        123,
        3
      ]
    },
    {
      "id": 97,
      "plugin": "VultModulesFree",
      "version": "1.19.1",
      "model": "Stabile",
      "params": [
        {
          "id": 0,
          "value": 0.362500042
        },
        {
          "id": 1,
          "value": 4.0
        },
        {
          "id": 2,
          "value": 0.260999948
        },
        {
          "id": 3,
          "value": 0.0
        },
        {
          "id": 4,
          "value": 0.549000025
        },
        {
          "id": 5,
          "value": 0.0
        }
      ],
      "leftModuleId": 94,
      "pos": [
        93,
        4
      ]
    },
    {
      "id": 103,
      "plugin": "NYSTHI",
      "version": "1.0.17",
      "model": "OP",
      "params": [
        {
          "id": 0,
          "value": -7.0
        },
        {
          "id": 1,
          "value": 0.0
        },
        {
          "id": 2,
          "value": 0.0
        },
        {
          "id": 3,
          "value": 0.0
        },
        {
          "id": 4,
          "value": 9.0
        },
        {
          "id": 5,
          "value": 0.055500064
        }
      ],
      "leftModuleId": 107,
      "rightModuleId": 105,
      "data": {
        "m_detached_from_expander": false,
        "m_base_freq": 261.625565
      },
      "pos": [
        60,
        4
      ]
    },
    {
      "id": 105,
      "plugin": "cf",
      "version": "1.1.1",
      "model": "SLIDERSEQ",
      "params": [
        {
          "id": 0,
          "value": 0.0
        },
        {
          "id": 1,
          "value": 0.453000098
        },
        {
          "id": 2,
          "value": 0.452999622
        },
        {
          "id": 3,
          "value": 0.494999468
        },
        {
          "id": 4,
          "value": 0.441999912
        },
        {
          "id": 5,
          "value": 0.440999955
        },
        {
          "id": 6,
          "value": 0.441000044
        },
        {
          "id": 7,
          "value": 0.56099999
        },
        {
          "id": 8,
          "value": 0.464999795
        },
        {
          "id": 9,
          "value": 0.405000031
        },
        {
          "id": 10,
          "value": 0.441000015
        },
        {
          "id": 11,
          "value": 0.498000085
        },
        {
          "id": 12,
          "value": 0.446999937
        },
        {
          "id": 13,
          "value": 0.455999941
        },
        {
          "id": 14,
          "value": 0.450000018
        },
        {
          "id": 15,
          "value": 0.729000509
        },
        {
          "id": 16,
          "value": 0.432000011
        },
        {
          "id": 17,
          "value": 0.0
        }
      ],
      "leftModuleId": 103,
      "rightModuleId": 95,
      "data": {
        "offsetstate": 0
      },
      "pos": [
        61,
        4
      ]
    },
    {
      "id": 107,
      "plugin": "Fundamental",
      "version": "1.4.0",
      "model": "ADSR",
      "params": [
        {
          "id": 0,
          "value": 0.0
        },
        {
          "id": 1,
          "value": 0.550000131
        },
        {
          "id": 2,
          "value": 1.0
        },
        {
          "id": 3,
          "value": 1.0
        }
      ],
      "leftModuleId": 73,
      "rightModuleId": 103,
      "pos": [
        52,
        4
      ]
    },
    {
      "id": 108,
      "plugin": "Bogaudio",
      "version": "1.1.38",
      "model": "Bogaudio-CVD",
      "params": [
        {
          "id": 0,
          "value": 0.507000268
        },
        {
          "id": 1,
          "value": 1.0
        },
        {
          "id": 2,
          "value": -0.380000174
        }
      ],
      "leftModuleId": 109,
      "data": {},
      "pos": [
        141,
        3
      ]
    },
    {
      "id": 109,
      "plugin": "NYSTHI",
      "version": "1.0.17",
      "model": "Ambuance",
      "params": [
        {
          "id": 0,
          "value": -15.8400593
        },
        {
          "id": 1,
          "value": 0.0
        },
        {
          "id": 2,
          "value": 0.943000257
        },
        {
          "id": 3,
          "value": 17.4086437
        },
        {
          "id": 4,
          "value": 5.4232173
        },
        {
          "id": 5,
          "value": 0.0
        },
        {
          "id": 6,
          "value": 0.100000001
        },
        {
          "id": 7,
          "value": -11.0
        },
        {
          "id": 8,
          "value": -18.7649994
        },
        {
          "id": 9,
          "value": 0.0
        },
        {
          "id": 10,
          "value": 0.0
        },
        {
          "id": 11,
          "value": 6.0
        },
        {
          "id": 12,
          "value": 0.0
        },
        {
          "id": 13,
          "value": 0.0
        },
        {
          "id": 14,
          "value": 0.0
        },
        {
          "id": 15,
          "value": 0.0
        },
        {
          "id": 16,
          "value": 0.0
        },
        {
          "id": 17,
          "value": 0.0
        },
        {
          "id": 18,
          "value": 0.0
        },
        {
          "id": 19,
          "value": 0.0
        },
        {
          "id": 20,
          "value": 0.0
        }
      ],
      "rightModuleId": 108,
      "data": {
        "m_revonrev": false,
        "m_bypass": false,
        "m_subtract_from_wet": false
      },
      "pos": [
        131,
        3
      ]
    },
    {
      "id": 110,
      "plugin": "NYSTHI",
      "version": "1.0.17",
      "model": "DYNAMO",
      "params": [
        {
          "id": 0,
          "value": 0.0424250029
        },
        {
          "id": 1,
          "value": 0.0209999867
        },
        {
          "id": 2,
          "value": 0.0661195144
        },
        {
          "id": 3,
          "value": 3.25909996
        },
        {
          "id": 4,
          "value": 0.0
        },
        {
          "id": 5,
          "value": 0.556430936
        },
        {
          "id": 6,
          "value": 1.89811122
        },
        {
          "id": 7,
          "value": 1.01399493
        },
        {
          "id": 8,
          "value": 0.0
        },
        {
          "id": 9,
          "value": 0.0
        },
        {
          "id": 10,
          "value": 0.0
        },
        {
          "id": 11,
          "value": 0.0
        },
        {
          "id": 12,
          "value": 0.0
        }
      ],
      "leftModuleId": 76,
      "rightModuleId": 81,
      "data": {
        "m_bypass": false,
        "m_show_info": false,
        "m_limiting": false,
        "m_ducking": false,
        "m_brickwallducking": false
      },
      "pos": [
        72,
        3
      ]
    },
    {
      "id": 111,
      "plugin": "NYSTHI",
      "version": "1.0.17",
      "model": "SAM",
      "params": [
        {
          "id": 0,
          "value": 0.297455966
        },
        {
          "id": 1,
          "value": 0.296249747
        },
        {
          "id": 2,
          "value": 0.614499807
        },
        {
          "id": 3,
          "value": 0.164500087
        },
        {
          "id": 4,
          "value": 0.0
        },
        {
          "id": 5,
          "value": 1.0
        },
        {
          "id": 6,
          "value": 0.100000001
        },
        {
          "id": 7,
          "value": 0.100000001
        },
        {
          "id": 8,
          "value": 0.100000001
        },
        {
          "id": 9,
          "value": 0.100000001
        },
        {
          "id": 10,
          "value": 0.100000001
        },
        {
          "id": 11,
          "value": 0.0
        },
        {
          "id": 12,
          "value": 0.0
        },
        {
          "id": 13,
          "value": 0.0
        },
        {
          "id": 14,
          "value": 0.0
        },
        {
          "id": 15,
          "value": 0.0
        },
        {
          "id": 16,
          "value": 0.0
        }
      ],
      "data": {
        "m_oneshot": true,
        "m_phonetic": false,
        "m_singmode": true,
        "m_text": "People find ",
        "m_phonetic_text": " PIY5PUL FAY5ND ",
        "m_random_mode": true,
        "m_last_index": 166
      },
      "pos": [
        87,
        1
      ]
    },
    {
      "id": 112,
      "plugin": "Bogaudio",
      "version": "1.1.38",
      "model": "Bogaudio-Chirp",
      "params": [
        {
          "id": 0,
          "value": 0.240000218
        },
        {
          "id": 1,
          "value": -1.01549959
        },
        {
          "id": 2,
          "value": -0.817500949
        },
        {
          "id": 3,
          "value": 0.0
        },
        {
          "id": 4,
          "value": 1.0
        },
        {
          "id": 5,
          "value": 1.0
        }
      ],
      "leftModuleId": 115,
      "data": {},
      "pos": [
        53,
        0
      ]
    },
    {
      "id": 113,
      "plugin": "Bogaudio",
      "version": "1.1.38",
      "model": "Bogaudio-Mix8",
      "params": [
        {
          "id": 0,
          "value": 0.369091123
        },
        {
          "id": 1,
          "value": 1.0
        },
        {
          "id": 2,
          "value": 0.0
        },
        {
          "id": 3,
          "value": 0.909090936
        },
        {
          "id": 4,
          "value": 0.0
        },
        {
          "id": 5,
          "value": 0.0
        },
        {
          "id": 6,
          "value": 0.909090936
        },
        {
          "id": 7,
          "value": 0.0
        },
        {
          "id": 8,
          "value": 0.0
        },
        {
          "id": 9,
          "value": 0.909090936
        },
        {
          "id": 10,
          "value": 0.0
        },
        {
          "id": 11,
          "value": 0.0
        },
        {
          "id": 12,
          "value": 0.909090936
        },
        {
          "id": 13,
          "value": 0.0
        },
        {
          "id": 14,
          "value": 0.0
        },
        {
          "id": 15,
          "value": 0.909090936
        },
        {
          "id": 16,
          "value": 0.0
        },
        {
          "id": 17,
          "value": 0.0
        },
        {
          "id": 18,
          "value": 0.909090936
        },
        {
          "id": 19,
          "value": 0.0
        },
        {
          "id": 20,
          "value": 0.0
        },
        {
          "id": 21,
          "value": 0.909090936
        },
        {
          "id": 22,
          "value": 0.0
        },
        {
          "id": 23,
          "value": 0.0
        },
        {
          "id": 24,
          "value": 0.909090936
        },
        {
          "id": 25,
          "value": 0.0
        },
        {
          "id": 26,
          "value": 0.0
        }
      ],
      "data": {
        "linear_cv": false,
        "dim_decibels": 12.0,
        "poly_channel_offset": -1
      },
      "pos": [
        60,
        0
      ]
    },
    {
      "id": 115,
      "plugin": "NYSTHI",
      "version": "1.0.17",
      "model": "CONVOLVZILLA",
      "params": [
        {
          "id": 0,
          "value": 0.0
        },
        {
          "id": 1,
          "value": 0.0
        },
        {
          "id": 2,
          "value": 0.0
        },
        {
          "id": 3,
          "value": 0.0
        },
        {
          "id": 4,
          "value": 0.0
        },
        {
          "id": 5,
          "value": 0.0
        },
        {
          "id": 6,
          "value": 0.0
        },
        {
          "id": 7,
          "value": 0.0
        },
        {
          "id": 8,
          "value": 0.0
        },
        {
          "id": 9,
          "value": 0.0
        },
        {
          "id": 10,
          "value": 0.00100000005
        },
        {
          "id": 11,
          "value": 0.0
        }
      ],
      "rightModuleId": 112,
      "data": {
        "m_bypassed": false,
        "m_active": true,
        "m_meno0db": false,
        "m_meno6db": false,
        "m_meno24db": true,
        "m_video_inverted": false,
        "m_normalize_impulse": true,
        "m_clean_zero_tails": true,
        "m_use_dc_block": true,
        "m_original_file_name": "Default.wav",
        "m_input_volume": 1.0,
        "m_output_volume": 1.01414061,
        "m_drywet": 0.0653906241,
        "m_convolver_block_size": 1024,
        "m_thread_high_priority": false
      },
      "pos": [
        32,
        0
      ]
    }
  ],
  "cables": [
    {
      "id": 431,
      "outputModuleId": 55,
      "outputId": 0,
      "inputModuleId": 53,
      "inputId": 0,
      "color": "#0c8e15"
    },
    {
      "id": 430,
      "outputModuleId": 54,
      "outputId": 1,
      "inputModuleId": 55,
      "inputId": 0,
      "color": "#c9b70e"
    },
    {
      "id": 432,
      "outputModuleId": 54,
      "outputId": 1,
      "inputModuleId": 58,
      "inputId": 3,
      "color": "#c91847"
    },
    {
      "id": 437,
      "outputModuleId": 58,
      "outputId": 1,
      "inputModuleId": 59,
      "inputId": 0,
      "color": "#c9b70e"
    },
    {
      "id": 434,
      "outputModuleId": 62,
      "outputId": 0,
      "inputModuleId": 60,
      "inputId": 0,
      "color": "#c9b70e"
    },
    {
      "id": 433,
      "outputModuleId": 58,
      "outputId": 0,
      "inputModuleId": 62,
      "inputId": 0,
      "color": "#0986ad"
    },
    {
      "id": 438,
      "outputModuleId": 62,
      "outputId": 0,
      "inputModuleId": 60,
      "inputId": 2,
      "color": "#0c8e15"
    },
    {
      "id": 439,
      "outputModuleId": 60,
      "outputId": 0,
      "inputModuleId": 63,
      "inputId": 0,
      "color": "#c91847"
    },
    {
      "id": 440,
      "outputModuleId": 60,
      "outputId": 1,
      "inputModuleId": 63,
      "inputId": 1,
      "color": "#0986ad"
    },
    {
      "id": 444,
      "outputModuleId": 55,
      "outputId": 1,
      "inputModuleId": 67,
      "inputId": 1,
      "color": "#c9b70e"
    },
    {
      "id": 447,
      "outputModuleId": 55,
      "outputId": 2,
      "inputModuleId": 69,
      "inputId": 0,
      "color": "#0986ad"
    },
    {
      "id": 448,
      "outputModuleId": 69,
      "outputId": 0,
      "inputModuleId": 62,
      "inputId": 1,
      "color": "#c9b70e"
    },
    {
      "id": 449,
      "outputModuleId": 69,
      "outputId": 4,
      "inputModuleId": 62,
      "inputId": 2,
      "color": "#0c8e15"
    },
    {
      "id": 450,
      "outputModuleId": 55,
      "outputId": 3,
      "inputModuleId": 70,
      "inputId": 1,
      "color": "#c91847"
    },
    {
      "id": 451,
      "outputModuleId": 70,
      "outputId": 0,
      "inputModuleId": 72,
      "inputId": 0,
      "color": "#c9b70e"
    },
    {
      "id": 458,
      "outputModuleId": 72,
      "outputId": 0,
      "inputModuleId": 75,
      "inputId": 0,
      "color": "#0986ad"
    },
    {
      "id": 463,
      "outputModuleId": 75,
      "outputId": 0,
      "inputModuleId": 71,
      "inputId": 2,
      "color": "#0986ad"
    },
    {
      "id": 465,
      "outputModuleId": 63,
      "outputId": 0,
      "inputModuleId": 73,
      "inputId": 0,
      "color": "#0c8e15"
    },
    {
      "id": 466,
      "outputModuleId": 63,
      "outputId": 1,
      "inputModuleId": 73,
      "inputId": 1,
      "color": "#c91847"
    },
    {
      "id": 468,
      "outputModuleId": 71,
      "outputId": 0,
      "inputModuleId": 7,
      "inputId": 0,
      "color": "#0c8e15"
    },
    {
      "id": 467,
      "outputModuleId": 73,
      "outputId": 0,
      "inputModuleId": 76,
      "inputId": 0,
      "color": "#0986ad"
    },
    {
      "id": 462,
      "outputModuleId": 73,
      "outputId": 1,
      "inputModuleId": 76,
      "inputId": 1,
      "color": "#0c8e15"
    },
    {
      "id": 471,
      "outputModuleId": 76,
      "outputId": 0,
      "inputModuleId": 71,
      "inputId": 8,
      "color": "#0c8e15"
    },
    {
      "id": 472,
      "outputModuleId": 76,
      "outputId": 1,
      "inputModuleId": 71,
      "inputId": 11,
      "color": "#c91847"
    },
    {
      "id": 445,
      "outputModuleId": 67,
      "outputId": 0,
      "inputModuleId": 71,
      "inputId": 14,
      "color": "#0c8e15"
    },
    {
      "id": 473,
      "outputModuleId": 76,
      "outputId": 2,
      "inputModuleId": 71,
      "inputId": 5,
      "color": "#0986ad"
    },
    {
      "id": 487,
      "outputModuleId": 88,
      "outputId": 0,
      "inputModuleId": 77,
      "inputId": 0,
      "color": "#0986ad"
    },
    {
      "id": 488,
      "outputModuleId": 88,
      "outputId": 1,
      "inputModuleId": 78,
      "inputId": 0,
      "color": "#c9b70e"
    },
    {
      "id": 489,
      "outputModuleId": 88,
      "outputId": 2,
      "inputModuleId": 79,
      "inputId": 0,
      "color": "#0c8e15"
    },
    {
      "id": 474,
      "outputModuleId": 55,
      "outputId": 0,
      "inputModuleId": 81,
      "inputId": 2,
      "color": "#c91847"
    },
    {
      "id": 475,
      "outputModuleId": 55,
      "outputId": 3,
      "inputModuleId": 81,
      "inputId": 8,
      "color": "#0986ad"
    },
    {
      "id": 490,
      "outputModuleId": 81,
      "outputId": 0,
      "inputModuleId": 88,
      "inputId": 1,
      "color": "#c91847"
    },
    {
      "id": 491,
      "outputModuleId": 88,
      "outputId": 3,
      "inputModuleId": 89,
      "inputId": 0,
      "color": "#0986ad"
    },
    {
      "id": 476,
      "outputModuleId": 81,
      "outputId": 1,
      "inputModuleId": 88,
      "inputId": 0,
      "color": "#c9b70e"
    },
    {
      "id": 498,
      "outputModuleId": 54,
      "outputId": 1,
      "inputModuleId": 95,
      "inputId": 0,
      "color": "#c9b70e"
    },
    {
      "id": 499,
      "outputModuleId": 95,
      "outputId": 0,
      "inputModuleId": 94,
      "inputId": 0,
      "color": "#0c8e15"
    },
    {
      "id": 482,
      "outputModuleId": 79,
      "outputId": 1,
      "inputModuleId": 82,
      "inputId": 8,
      "color": "#c9b70e"
    },
    {
      "id": 492,
      "outputModuleId": 89,
      "outputId": 1,
      "inputModuleId": 82,
      "inputId": 11,
      "color": "#c9b70e"
    },
    {
      "id": 481,
      "outputModuleId": 78,
      "outputId": 2,
      "inputModuleId": 82,
      "inputId": 5,
      "color": "#0986ad"
    },
    {
      "id": 480,
      "outputModuleId": 77,
      "outputId": 2,
      "inputModuleId": 82,
      "inputId": 2,
      "color": "#c91847"
    },
    {
      "id": 496,
      "outputModuleId": 82,
      "outputId": 0,
      "inputModuleId": 97,
      "inputId": 0,
      "color": "#c91847"
    },
    {
      "id": 504,
      "outputModuleId": 94,
      "outputId": 1,
      "inputModuleId": 97,
      "inputId": 1,
      "color": "#0986ad"
    },
    {
      "id": 510,
      "outputModuleId": 54,
      "outputId": 0,
      "inputModuleId": 95,
      "inputId": 1,
      "color": "#0c8e15"
    },
    {
      "id": 507,
      "outputModuleId": 95,
      "outputId": 1,
      "inputModuleId": 105,
      "inputId": 1,
      "color": "#c91847"
    },
    {
      "id": 509,
      "outputModuleId": 105,
      "outputId": 0,
      "inputModuleId": 103,
      "inputId": 0,
      "color": "#c9b70e"
    },
    {
      "id": 512,
      "outputModuleId": 54,
      "outputId": 0,
      "inputModuleId": 105,
      "inputId": 0,
      "color": "#c9b70e"
    },
    {
      "id": 514,
      "outputModuleId": 95,
      "outputId": 1,
      "inputModuleId": 107,
      "inputId": 5,
      "color": "#c91847"
    },
    {
      "id": 517,
      "outputModuleId": 95,
      "outputId": 1,
      "inputModuleId": 107,
      "inputId": 4,
      "color": "#c91847"
    },
    {
      "id": 516,
      "outputModuleId": 107,
      "outputId": 0,
      "inputModuleId": 71,
      "inputId": 18,
      "color": "#0c8e15"
    },
    {
      "id": 518,
      "outputModuleId": 71,
      "outputId": 1,
      "inputModuleId": 7,
      "inputId": 1,
      "color": "#0986ad"
    },
    {
      "id": 503,
      "outputModuleId": 97,
      "outputId": 1,
      "inputModuleId": 96,
      "inputId": 0,
      "color": "#c91847"
    },
    {
      "id": 522,
      "outputModuleId": 108,
      "outputId": 0,
      "inputModuleId": 71,
      "inputId": 17,
      "color": "#0986ad"
    },
    {
      "id": 519,
      "outputModuleId": 109,
      "outputId": 0,
      "inputModuleId": 108,
      "inputId": 2,
      "color": "#c9b70e"
    },
    {
      "id": 523,
      "outputModuleId": 96,
      "outputId": 0,
      "inputModuleId": 109,
      "inputId": 0,
      "color": "#c9b70e"
    },
    {
      "id": 524,
      "outputModuleId": 96,
      "outputId": 1,
      "inputModuleId": 109,
      "inputId": 1,
      "color": "#0c8e15"
    },
    {
      "id": 527,
      "outputModuleId": 103,
      "outputId": 0,
      "inputModuleId": 110,
      "inputId": 0,
      "color": "#c9b70e"
    },
    {
      "id": 528,
      "outputModuleId": 103,
      "outputId": 0,
      "inputModuleId": 110,
      "inputId": 1,
      "color": "#0c8e15"
    },
    {
      "id": 529,
      "outputModuleId": 110,
      "outputId": 0,
      "inputModuleId": 71,
      "inputId": 20,
      "color": "#0986ad"
    },
    {
      "id": 530,
      "outputModuleId": 111,
      "outputId": 0,
      "inputModuleId": 71,
      "inputId": 23,
      "color": "#c91847"
    },
    {
      "id": 532,
      "outputModuleId": 55,
      "outputId": 2,
      "inputModuleId": 111,
      "inputId": 6,
      "color": "#c9b70e"
    },
    {
      "id": 455,
      "outputModuleId": 55,
      "outputId": 0,
      "inputModuleId": 72,
      "inputId": 1,
      "color": "#c9b70e"
    },
    {
      "id": 533,
      "outputModuleId": 5,
      "outputId": 1,
      "inputModuleId": 112,
      "inputId": 3,
      "color": "#0c8e15"
    },
    {
      "id": 452,
      "outputModuleId": 71,
      "outputId": 0,
      "inputModuleId": 113,
      "inputId": 5,
      "color": "#0c8e15"
    },
    {
      "id": 453,
      "outputModuleId": 71,
      "outputId": 1,
      "inputModuleId": 113,
      "inputId": 8,
      "color": "#c91847"
    },
    {
      "id": 536,
      "outputModuleId": 113,
      "outputId": 0,
      "inputModuleId": 1,
      "inputId": 0,
      "color": "#0c8e15"
    },
    {
      "id": 537,
      "outputModuleId": 113,
      "outputId": 1,
      "inputModuleId": 1,
      "inputId": 1,
      "color": "#c91847"
    },
    {
      "id": 538,
      "outputModuleId": 112,
      "outputId": 1,
      "inputModuleId": 113,
      "inputId": 2,
      "color": "#0986ad"
    },
    {
      "id": 539,
      "outputModuleId": 53,
      "outputId": 0,
      "inputModuleId": 115,
      "inputId": 0,
      "color": "#c9b70e"
    },
    {
      "id": 469,
      "outputModuleId": 115,
      "outputId": 0,
      "inputModuleId": 76,
      "inputId": 5,
      "color": "#0986ad"
    },
    {
      "id": 470,
      "outputModuleId": 115,
      "outputId": 0,
      "inputModuleId": 76,
      "inputId": 6,
      "color": "#c9b70e"
    },
    {
      "id": 526,
      "outputModuleId": 115,
      "outputId": 0,
      "inputModuleId": 110,
      "inputId": 6,
      "color": "#0986ad"
    },
    {
      "id": 540,
      "outputModuleId": 115,
      "outputId": 0,
      "inputModuleId": 110,
      "inputId": 5,
      "color": "#0c8e15"
    },
    {
      "id": 541,
      "outputModuleId": 5,
      "outputId": 6,
      "inputModuleId": 54,
      "inputId": 6,
      "color": "#c91847"
    },
    {
      "id": 511,
      "outputModuleId": 54,
      "outputId": 0,
      "inputModuleId": 55,
      "inputId": 1,
      "color": "#c91847"
    }
  ]
}